<svg aria-hidden="true" style="position: absolute; width: 0; height: 0; overflow: hidden;" version="1.1" xmlns="http://www.w3.org/2000/svg" xmlns:xlink="http://www.w3.org/1999/xlink">
<defs>
<symbol id="icon-arrow-red" viewBox="0 0 22 32">
<path fill="none" stroke="#d41443" style="stroke: var(--color1, #d41443)" stroke-linejoin="round" stroke-linecap="round" stroke-miterlimit="4" stroke-width="6.4" d="M4.544 3.2l13.702 12.8-13.702 12.8"></path>
</symbol>
<symbol id="icon-arrow-white" viewBox="0 0 19 32">
<path fill="none" stroke="#fff" style="stroke: var(--color2, #fff)" stroke-linejoin="round" stroke-linecap="round" stroke-miterlimit="4" stroke-width="6.4" d="M3.2 3.2l11.552 12.8-11.552 12.8"></path>
</symbol>
<symbol id="icon-close" viewBox="0 0 32 32">
<path fill="none" stroke="#fff" style="stroke: var(--color1, #fff)" stroke-linejoin="miter" stroke-linecap="butt" stroke-miterlimit="4" stroke-width="2" d="M2.52 2l26.96 28M2 29.48l28-26.96"></path>
<symbol id="icon-git-logo" viewBox="0 0 32 32">
<path d="M16.008 0c-8.793 0-16.008 7.215-16.008 16.008 0 7.503 5.265 14.319 12.256 16.008v-5.295c-0.276 0.070-0.593 0.109-0.919 0.109-0.398 0-0.782-0.059-1.143-0.169l0.028 0.007c-0.946-0.279-1.714-0.909-2.286-1.87-0.363-0.613-1.008-1.281-1.681-1.231l-0.165-1.868c1.455-0.125 2.712 0.887 3.458 2.14 0.333 0.559 0.716 0.885 1.205 1.029 0.472 0.141 0.981 0.074 1.574-0.136 0.149-1.186 0.693-1.63 1.105-2.257-4.17-0.621-5.832-2.833-6.491-4.578-0.874-2.32-0.405-5.215 1.14-7.047 0.030-0.035 0.085-0.128 0.064-0.192-0.709-2.142 0.154-3.912 0.186-4.1 0.818 0.24 0.951-0.243 3.554 1.337l0.448 0.271c0.189 0.112 0.128 0.048 0.317 0.032 1.003-0.282 2.158-0.452 3.35-0.469l0.010-0c1.137 0.014 2.273 0.176 3.405 0.483l0.146 0.016c-0.013-0.003 0.040-0.010 0.128-0.062 3.25-1.969 3.133-1.325 4.005-1.609 0.032 0.189 0.882 1.988 0.183 4.101-0.096 0.291 2.817 2.958 1.202 7.239-0.66 1.745-2.321 3.959-6.49 4.58 0.535 0.816 1.177 1.249 1.173 2.929v6.61c6.989-1.689 12.256-8.505 12.256-16.008 0-8.793-7.215-16.008-16.008-16.008z"></path>
</symbol>
<symbol id="icon-telegram-logo" viewBox="0 0 44 32">
<path d="M17.346 21.054l-0.674 8.862c0.966 0 1.384-0.388 1.886-0.852l4.527-4.041 9.382 6.415c1.72 0.894 2.935 0.422 3.399-1.478l6.159-26.938c0.548-2.375-0.92-3.303-2.595-2.721l-36.202 12.937c-2.471 0.896-2.435 2.181-0.42 2.767l9.254 2.685 21.499-12.555c1.012-0.626 1.932-0.28 1.176 0.346l-17.394 14.573z"></path>
</symbol>
<symbol id="icon-facebook-logo" viewBox="0 0 16 32">
<path d="M14.151 15.975h-4.034v14.869h-6.113v-14.869h-2.907v-5.223h2.907v-3.383c0-2.418 1.142-6.205 6.169-6.205l4.528 0.019v5.073h-3.285c-0.538 0-1.298 0.272-1.298 1.426v3.074h4.568l-0.534 5.22z"></path>
</symbol>
</defs>
</svg>
